<mxfile host="app.diagrams.net" modified="2022-06-20T00:27:34.297Z" agent="5.0 (Macintosh)" etag="xc8uewSt7An3M31IHaez" version="20.0.1" type="github">
  <diagram id="E2l5rYUeE3aZGdfNp-Fx" name="Page-1">
    <mxGraphModel dx="946" dy="587" grid="1" gridSize="10" guides="1" tooltips="1" connect="1" arrows="1" fold="1" page="1" pageScale="1" pageWidth="850" pageHeight="1100" math="0" shadow="0">
      <root>
        <mxCell id="0" />
        <mxCell id="1" parent="0" />
        <mxCell id="0POYecLPXs7CjEtetJMV-26" value="" style="rounded=0;whiteSpace=wrap;html=1;labelBorderColor=none;fontFamily=JetBrains Mono;fontSize=13;" parent="1" vertex="1">
          <mxGeometry x="255" y="210" width="260" height="30" as="geometry" />
        </mxCell>
        <mxCell id="0POYecLPXs7CjEtetJMV-3" value="NOT(in)" style="shape=table;startSize=30;container=1;collapsible=0;childLayout=tableLayout;fontStyle=1;align=center;fontSize=13;fontFamily=JetBrains Mono;" parent="1" vertex="1">
          <mxGeometry x="440" y="80" width="120" height="120" as="geometry" />
        </mxCell>
        <mxCell id="0POYecLPXs7CjEtetJMV-4" value="" style="shape=tableRow;horizontal=0;startSize=0;swimlaneHead=0;swimlaneBody=0;top=0;left=0;bottom=0;right=0;collapsible=0;dropTarget=0;fillColor=none;points=[[0,0.5],[1,0.5]];portConstraint=eastwest;fontSize=13;" parent="0POYecLPXs7CjEtetJMV-3" vertex="1">
          <mxGeometry y="30" width="120" height="30" as="geometry" />
        </mxCell>
        <mxCell id="0POYecLPXs7CjEtetJMV-5" value="IN" style="shape=partialRectangle;html=1;whiteSpace=wrap;connectable=0;fillColor=none;top=0;left=0;bottom=0;right=0;overflow=hidden;fontSize=13;fontFamily=JetBrains Mono;fontStyle=2" parent="0POYecLPXs7CjEtetJMV-4" vertex="1">
          <mxGeometry width="60" height="30" as="geometry">
            <mxRectangle width="60" height="30" as="alternateBounds" />
          </mxGeometry>
        </mxCell>
        <mxCell id="0POYecLPXs7CjEtetJMV-6" value="OUT" style="shape=partialRectangle;html=1;whiteSpace=wrap;connectable=0;fillColor=none;top=0;left=0;bottom=0;right=0;overflow=hidden;fontSize=13;fontFamily=JetBrains Mono;fontStyle=2" parent="0POYecLPXs7CjEtetJMV-4" vertex="1">
          <mxGeometry x="60" width="60" height="30" as="geometry">
            <mxRectangle width="60" height="30" as="alternateBounds" />
          </mxGeometry>
        </mxCell>
        <mxCell id="0POYecLPXs7CjEtetJMV-8" value="" style="shape=tableRow;horizontal=0;startSize=0;swimlaneHead=0;swimlaneBody=0;top=0;left=0;bottom=0;right=0;collapsible=0;dropTarget=0;fillColor=none;points=[[0,0.5],[1,0.5]];portConstraint=eastwest;fontSize=13;" parent="0POYecLPXs7CjEtetJMV-3" vertex="1">
          <mxGeometry y="60" width="120" height="30" as="geometry" />
        </mxCell>
        <mxCell id="0POYecLPXs7CjEtetJMV-9" value="1" style="shape=partialRectangle;html=1;whiteSpace=wrap;connectable=0;fillColor=none;top=0;left=0;bottom=0;right=0;overflow=hidden;fontSize=13;fontFamily=JetBrains Mono;" parent="0POYecLPXs7CjEtetJMV-8" vertex="1">
          <mxGeometry width="60" height="30" as="geometry">
            <mxRectangle width="60" height="30" as="alternateBounds" />
          </mxGeometry>
        </mxCell>
        <mxCell id="0POYecLPXs7CjEtetJMV-10" value="0" style="shape=partialRectangle;html=1;whiteSpace=wrap;connectable=0;fillColor=none;top=0;left=0;bottom=0;right=0;overflow=hidden;fontSize=13;fontFamily=JetBrains Mono;" parent="0POYecLPXs7CjEtetJMV-8" vertex="1">
          <mxGeometry x="60" width="60" height="30" as="geometry">
            <mxRectangle width="60" height="30" as="alternateBounds" />
          </mxGeometry>
        </mxCell>
        <mxCell id="0POYecLPXs7CjEtetJMV-12" value="" style="shape=tableRow;horizontal=0;startSize=0;swimlaneHead=0;swimlaneBody=0;top=0;left=0;bottom=0;right=0;collapsible=0;dropTarget=0;fillColor=none;points=[[0,0.5],[1,0.5]];portConstraint=eastwest;fontSize=13;" parent="0POYecLPXs7CjEtetJMV-3" vertex="1">
          <mxGeometry y="90" width="120" height="30" as="geometry" />
        </mxCell>
        <mxCell id="0POYecLPXs7CjEtetJMV-13" value="0" style="shape=partialRectangle;html=1;whiteSpace=wrap;connectable=0;fillColor=none;top=0;left=0;bottom=0;right=0;overflow=hidden;fontSize=13;fontFamily=JetBrains Mono;" parent="0POYecLPXs7CjEtetJMV-12" vertex="1">
          <mxGeometry width="60" height="30" as="geometry">
            <mxRectangle width="60" height="30" as="alternateBounds" />
          </mxGeometry>
        </mxCell>
        <mxCell id="0POYecLPXs7CjEtetJMV-14" value="1" style="shape=partialRectangle;html=1;whiteSpace=wrap;connectable=0;fillColor=none;top=0;left=0;bottom=0;right=0;overflow=hidden;fontSize=13;fontFamily=JetBrains Mono;" parent="0POYecLPXs7CjEtetJMV-12" vertex="1">
          <mxGeometry x="60" width="60" height="30" as="geometry">
            <mxRectangle width="60" height="30" as="alternateBounds" />
          </mxGeometry>
        </mxCell>
        <mxCell id="0POYecLPXs7CjEtetJMV-16" value="" style="triangle;whiteSpace=wrap;html=1;fontFamily=JetBrains Mono;fontSize=13;" parent="1" vertex="1">
          <mxGeometry x="240" y="80" width="90" height="120" as="geometry" />
        </mxCell>
        <mxCell id="0POYecLPXs7CjEtetJMV-18" value="" style="ellipse;whiteSpace=wrap;html=1;aspect=fixed;fontFamily=JetBrains Mono;fontSize=13;" parent="1" vertex="1">
          <mxGeometry x="330" y="135" width="10" height="10" as="geometry" />
        </mxCell>
        <mxCell id="0POYecLPXs7CjEtetJMV-20" value="" style="endArrow=classic;html=1;rounded=0;fontFamily=JetBrains Mono;fontSize=13;entryX=0;entryY=0.5;entryDx=0;entryDy=0;" parent="1" target="0POYecLPXs7CjEtetJMV-16" edge="1">
          <mxGeometry width="50" height="50" relative="1" as="geometry">
            <mxPoint x="190" y="140" as="sourcePoint" />
            <mxPoint x="210" y="120" as="targetPoint" />
          </mxGeometry>
        </mxCell>
        <mxCell id="0POYecLPXs7CjEtetJMV-21" value="" style="endArrow=classic;html=1;rounded=0;fontFamily=JetBrains Mono;fontSize=13;" parent="1" edge="1">
          <mxGeometry width="50" height="50" relative="1" as="geometry">
            <mxPoint x="340" y="139.5" as="sourcePoint" />
            <mxPoint x="380" y="140" as="targetPoint" />
          </mxGeometry>
        </mxCell>
        <mxCell id="0POYecLPXs7CjEtetJMV-22" value="&lt;b&gt;NOT&lt;/b&gt;" style="text;html=1;strokeColor=none;fillColor=none;align=center;verticalAlign=middle;whiteSpace=wrap;rounded=0;fontFamily=JetBrains Mono;fontSize=13;" parent="1" vertex="1">
          <mxGeometry x="245" y="125" width="60" height="30" as="geometry" />
        </mxCell>
        <mxCell id="0POYecLPXs7CjEtetJMV-23" value="&lt;i&gt;IN&lt;/i&gt;" style="text;html=1;strokeColor=none;fillColor=none;align=center;verticalAlign=middle;whiteSpace=wrap;rounded=0;fontFamily=JetBrains Mono;fontSize=13;" parent="1" vertex="1">
          <mxGeometry x="160" y="110" width="60" height="30" as="geometry" />
        </mxCell>
        <mxCell id="0POYecLPXs7CjEtetJMV-24" value="&lt;i&gt;OUT&lt;/i&gt;" style="text;html=1;strokeColor=none;fillColor=none;align=center;verticalAlign=middle;whiteSpace=wrap;rounded=0;fontFamily=JetBrains Mono;fontSize=13;" parent="1" vertex="1">
          <mxGeometry x="365" y="140" width="60" height="30" as="geometry" />
        </mxCell>
        <mxCell id="0POYecLPXs7CjEtetJMV-25" value="NOT(in) = (&lt;i&gt;IN&lt;/i&gt; NAND &lt;i&gt;IN&lt;/i&gt;)" style="text;html=1;strokeColor=none;fillColor=none;align=center;verticalAlign=middle;whiteSpace=wrap;rounded=0;fontFamily=JetBrains Mono;fontSize=13;labelBorderColor=none;" parent="1" vertex="1">
          <mxGeometry x="260" y="210" width="250" height="30" as="geometry" />
        </mxCell>
      </root>
    </mxGraphModel>
  </diagram>
</mxfile>
